<svg width="168" height="64" viewBox="0 0 168 64" fill="none" xmlns="http://www.w3.org/2000/svg">
<path d="M20.2005 18.6778C20.0545 18.7758 20.0132 18.9718 20.1055 19.1223C20.1979 19.2702 20.3949 19.3249 20.5497 19.2407C20.751 19.1383 40.8156 8.76019 68.523 8.76019C80.0606 8.76019 87.7151 10.7697 95.8165 12.8931C104.117 15.0713 112.701 17.3248 125.921 17.3248C135.786 17.3248 145.382 15.5612 154.452 12.0846C154.579 12.0344 154.665 11.9159 154.665 11.7792C154.668 11.647 154.587 11.5218 154.462 11.4693C136.628 3.96674 115.897 4.15795e-09 94.5135 4.15795e-09C48.0955 -0.000320178 20.4736 18.4912 20.2005 18.6778Z" fill="white"/>
<path d="M71.7726 32.4819C68.6349 32.4819 66.1983 34.5006 66.1983 34.5006C66.1983 34.5006 63.521 33.015 61.3251 32.8398L61.3274 63.4064H67.3992V39.93C67.3992 37.5625 69.5649 36.2847 71.3099 36.2847C73.0548 36.2847 75.1926 37.5491 75.1926 39.93V63.4064H81.2667V40.9437C81.2667 35.3299 78.0711 32.4819 71.7726 32.4819" fill="white"/>
<path d="M119.667 32.5005C116.913 32.5005 113.827 33.0041 113.796 33.0108L113.618 33.0384V37.39L113.873 37.3397C113.905 37.333 117.098 36.7224 119.267 36.7224C120.824 36.7224 121.578 37.7364 121.578 39.8163V58.1298C121.578 58.8793 120.81 59.3852 120.093 59.3852C119.17 59.3852 116.673 58.2643 116.196 53.1698C115.719 48.0616 116.509 45.863 119.713 43.3729C120.169 43.038 120.192 42.6781 120.063 42.4549C119.938 42.2362 119.669 42.145 119.438 42.2407C116.254 43.2134 110.837 46.656 110.837 53.3661C110.837 59.0257 114.799 63.6302 119.667 63.6302C120.822 63.6302 121.977 63.2316 123.023 62.4843C123.076 62.516 123.129 62.5457 123.129 62.5457C123.816 62.9354 124.758 63.4752 127.317 63.4752H127.53V39.7753C127.53 34.8106 125.031 32.5005 119.667 32.5005" fill="white"/>
<path d="M159.235 32.5005C156.481 32.5005 153.397 33.0041 153.365 33.0108L153.186 33.0384V37.39L153.441 37.3397C153.473 37.333 156.669 36.7224 158.835 36.7224C160.392 36.7224 161.149 37.7364 161.149 39.8163V58.1298C161.149 58.8793 160.378 59.3852 159.661 59.3852C158.74 59.3852 156.241 58.2643 155.764 53.1698C155.288 48.0616 156.079 45.863 159.284 43.3729C159.735 43.038 159.761 42.6781 159.631 42.4549C159.506 42.2362 159.238 42.145 159.006 42.2407C155.825 43.2134 150.408 46.656 150.408 53.3661C150.408 59.0257 154.367 63.6302 159.235 63.6302C160.388 63.6302 161.545 63.2316 162.591 62.4843C162.644 62.516 162.697 62.5457 162.697 62.5457C163.384 62.9354 164.326 63.4752 166.885 63.4752H167.098V39.7753C167.098 34.8106 164.601 32.5005 159.235 32.5005" fill="white"/>
<path d="M48.1287 32.5005C45.375 32.5005 42.2903 33.0041 42.2581 33.0108L42.0799 33.0384V37.39L42.3346 37.3397C42.3668 37.333 45.5623 36.7224 47.7284 36.7224C49.2857 36.7224 50.0424 37.7364 50.0424 39.8163V58.1298C50.0424 58.8793 49.0565 59.3852 48.3417 59.3852C47.4159 59.3852 45.1344 58.2643 44.6603 53.1698C44.1813 48.0616 44.9705 45.863 48.1752 43.3729C48.6311 43.038 48.6542 42.6781 48.5245 42.4549C48.3996 42.2362 48.131 42.145 47.8998 42.2407C44.7159 43.2134 39.3009 46.656 39.3009 53.3661C39.3009 59.0257 43.0451 63.6302 47.9134 63.6302C49.0682 63.6302 50.4382 63.2316 51.4863 62.4843C51.5396 62.516 51.5903 62.5457 51.5903 62.5457C52.2774 62.9354 53.2192 63.4752 55.7787 63.4752H55.994V39.7753C55.994 34.8106 53.4949 32.5005 48.1287 32.5005Z" fill="white"/>
<path d="M140.947 45.6936C139.045 43.93 137.402 42.4059 137.402 40.5399C137.402 38.2068 139.246 37.1473 140.96 37.1473C143.082 37.1473 145.452 37.9628 145.452 37.9628V33.3694C145.452 33.3694 143.08 32.3625 140.12 32.3625C137.161 32.3625 132.271 34.1212 132.271 40.7106C132.271 44.8115 134.974 47.2814 137.357 49.4618C139.382 51.3141 141.293 53.0639 141.293 55.5133C141.293 57.589 139.579 59.2133 137.392 59.2133C134.576 59.2133 132.132 57.8234 132.132 57.8234V62.7856C132.132 62.7856 134.99 64 138.373 64C142.367 64 146.502 60.7739 146.502 55.3762C146.502 50.8383 143.552 48.1042 140.947 45.6936" fill="white"/>
<path d="M15.3325 43.8887V58.9238C14.967 58.9238 14.6337 58.9261 14.6337 58.9261C9.20957 58.9261 6.04877 53.8201 6.04877 44.9161C6.04877 36.0122 9.28827 30.8358 14.6337 30.8358L17.5285 30.879V26.4682L14.4948 26.3817C4.74153 26.3817 0 32.3989 0 44.7753L0.0022763 44.9142L0 45.0532C0 57.4318 4.7412 63.4486 14.4948 63.4486L20.3446 63.4349V43.8887H15.3325V43.8887Z" fill="white"/>
<path d="M34.9821 36.7419C36.3544 36.7419 38.3468 37.3797 38.3468 37.3797V33.0393C38.3468 33.0393 36.4448 32.4857 34.9544 32.4857C32.1198 32.4857 29.9007 34.2925 29.8754 34.3085L29.7921 34.37L29.7063 34.313C29.6809 34.2948 27.1815 32.7134 25.0714 32.6407C25.0714 32.9551 25.076 63.1413 25.076 63.4307H30.8005V40.1413C30.8005 37.9311 32.9572 36.7419 34.9821 36.7419" fill="white"/>
<path d="M105.606 63.448L106.36 63.4342C106.36 63.4342 107.124 63.3862 107.332 63.3727V58.9187C107.085 58.9187 105.742 58.9254 105.742 58.9254C100.318 58.9254 97.1901 53.822 97.1598 44.9181C97.1897 36.1009 100.397 30.8355 105.742 30.8355L106.96 30.831H107.323C107.325 30.5668 107.332 26.7208 107.332 26.4656C107.098 26.4519 105.606 26.3811 105.606 26.3811C95.85 26.3811 91.1088 32.3983 91.1088 44.7746V45.0525C91.1091 57.4308 95.8503 63.448 105.606 63.448" fill="white"/>
</svg>
